<svg width="16" height="27" viewBox="0 0 16 27" fill="none" xmlns="http://www.w3.org/2000/svg">
<path d="M9 10C9 9.44772 8.55228 9 8 9C7.44772 9 7 9.44772 7 10L9 10ZM7.29289 26.7071C7.68342 27.0976 8.31658 27.0976 8.70711 26.7071L15.0711 20.3431C15.4616 19.9526 15.4616 19.3195 15.0711 18.9289C14.6805 18.5384 14.0474 18.5384 13.6569 18.9289L8 24.5858L2.34315 18.9289C1.95262 18.5384 1.31946 18.5384 0.928932 18.9289C0.538408 19.3195 0.538408 19.9526 0.928932 20.3431L7.29289 26.7071ZM7 10L7 18L9 18L9 10L7 10ZM7 18L7 26L9 26L9 18L7 18Z" fill="black"/>
<rect x="9" y="6" width="2" height="2" rx="1" transform="rotate(90 9 6)" fill="black"/>
<rect x="9" y="3" width="2" height="2" rx="1" transform="rotate(90 9 3)" fill="black"/>
<rect x="9" width="2" height="2" rx="1" transform="rotate(90 9 0)" fill="black"/>
</svg>
