<svg width="36" height="36" viewBox="0 0 36 36" fill="none" xmlns="http://www.w3.org/2000/svg">
<path d="M15 17C14.4477 17 14 17.4477 14 18C14 18.5523 14.4477 19 15 19V17ZM31.7071 18.7071C32.0976 18.3166 32.0976 17.6834 31.7071 17.2929L25.3431 10.9289C24.9526 10.5384 24.3195 10.5384 23.9289 10.9289C23.5384 11.3195 23.5384 11.9526 23.9289 12.3431L29.5858 18L23.9289 23.6569C23.5384 24.0474 23.5384 24.6805 23.9289 25.0711C24.3195 25.4616 24.9526 25.4616 25.3431 25.0711L31.7071 18.7071ZM15 19L23 19V17L15 17V19ZM23 19H31V17H23V19Z" fill="black"/>
<rect x="11" y="17" width="2" height="2" rx="1" fill="black"/>
<rect x="8" y="17" width="2" height="2" rx="1" fill="black"/>
<rect x="5" y="17" width="2" height="2" rx="1" fill="black"/>
</svg>
