<svg width="34" height="34" viewBox="0 0 34 34" fill="none" xmlns="http://www.w3.org/2000/svg">
<path fill-rule="evenodd" clip-rule="evenodd" d="M26.8419 0.948664C30.3226 2.10914 32.7142 5.37508 32.727 9.03814L33.727 9.03465C33.7127 4.9365 31.0403 1.2943 27.1581 0L26.8419 0.948664ZM25.9369 3.97033C28.4435 4.28931 30.1779 6.66383 29.697 9.13719L30.6787 9.32804C31.2712 6.28022 29.136 3.36936 26.0631 2.97833L25.9369 3.97033ZM15.0147 5.43575C10.4429 6.35658 7 10.3956 7 15.2387V21.2387H5.5C4.11929 21.2387 3 22.358 3 23.7387C3 25.1194 4.11929 26.2387 5.5 26.2387H28.5C29.8807 26.2387 31 25.1194 31 23.7387C31 22.358 29.8807 21.2387 28.5 21.2387H27V15.2387C27 10.3956 23.5571 6.35658 18.9853 5.43575C18.9314 4.88434 18.7317 4.36779 18.4142 3.97092C18.0391 3.50208 17.5304 3.23869 17 3.23869C16.4696 3.23869 15.9609 3.50208 15.5858 3.97092C15.2683 4.36779 15.0686 4.88434 15.0147 5.43575ZM12 28.2387C12 29.5648 12.5268 30.8365 13.4645 31.7742C14.4021 32.7119 15.6739 33.2387 17 33.2387C18.3261 33.2387 19.5979 32.7119 20.5355 31.7742C21.4732 30.8365 22 29.5648 22 28.2387L17 28.2387H12ZM1.01249 9.26679C1.0256 5.60873 3.49083 2.33427 7.06482 1.17535L6.7524 0.238687C2.76806 1.53068 0.0146607 5.18075 0 9.27137L1.01249 9.26679ZM4.12789 9.36705C3.63447 6.89874 5.42442 4.51509 7.99649 4.19676L7.87707 3.21728C4.72772 3.60705 2.52677 6.52569 3.13404 9.56355L4.12789 9.36705Z" fill="white"/>
</svg>
