<svg width="36" height="32" viewBox="0 0 36 32" fill="none" xmlns="http://www.w3.org/2000/svg">
<g clip-path="url(#clip0_3_386)">
<path d="M16.28 10.47C18.391 10.0575 20.575 10.2375 22.59 10.99C22.6878 11.0287 22.7771 11.0864 22.8526 11.1596C22.9282 11.2328 22.9886 11.3202 23.0304 11.4168C23.1148 11.6118 23.1182 11.8324 23.04 12.03C22.9618 12.2276 22.8082 12.386 22.6132 12.4704C22.4182 12.5548 22.1976 12.5582 22 12.48C20.265 11.824 18.383 11.6579 16.56 12C16.4531 12.0281 16.3416 12.0338 16.2324 12.0167C16.1233 11.9996 16.0188 11.96 15.9257 11.9005C15.8326 11.841 15.7528 11.7629 15.6914 11.671C15.6299 11.5792 15.5882 11.4756 15.5688 11.3668C15.5494 11.258 15.5528 11.1464 15.5786 11.039C15.6045 10.9315 15.6524 10.8306 15.7192 10.7426C15.786 10.6546 15.8703 10.5814 15.9669 10.5276C16.0634 10.4738 16.17 10.4405 16.28 10.43V10.47Z" fill="black"/>
<path d="M10.62 18.07C9.86891 18.07 9.26001 17.4611 9.26001 16.71C9.26001 15.9589 9.86891 15.35 10.62 15.35C11.3711 15.35 11.98 15.9589 11.98 16.71C11.98 17.4611 11.3711 18.07 10.62 18.07Z" fill="black"/>
<path d="M0.490002 18.63C0.582672 18.4929 0.707924 18.3809 0.85453 18.3041C1.00114 18.2273 1.16451 18.1881 1.33 18.19C2.13794 18.0779 2.87918 17.6806 3.42 17.07C4.46072 15.9325 5.34518 14.6613 6.05 13.29L3.17 8.79001C2.99524 8.52923 2.88818 8.22903 2.8585 7.91652C2.82882 7.604 2.87745 7.28902 3 7.00001C3.12274 6.73707 3.30824 6.50835 3.54016 6.33397C3.77209 6.15959 4.04333 6.0449 4.33 6.00001C6.16145 5.75319 8.02551 6.01256 9.72 6.75001C10.6911 7.17776 11.6049 7.72534 12.44 8.38001C14.0756 7.64658 15.8173 7.17741 17.6 6.99001C24.69 6.30001 31.17 10.9 32 17C32.3235 16.8545 32.6132 16.6434 32.8507 16.38C33.0883 16.1166 33.2685 15.8067 33.38 15.47C33.4513 15.2391 33.4756 14.9963 33.4516 14.7558C33.4276 14.5154 33.3556 14.2822 33.24 14.07C33.1363 13.8918 32.9882 13.7437 32.81 13.64C32.6885 13.5665 32.5827 13.4697 32.4986 13.3553C32.4146 13.2409 32.3538 13.111 32.3199 12.9731C32.2861 12.8352 32.2797 12.692 32.3011 12.5516C32.3226 12.4112 32.3715 12.2765 32.445 12.155C32.5185 12.0335 32.6153 11.9277 32.7297 11.8437C32.8441 11.7596 32.974 11.6988 33.1119 11.665C33.2498 11.6311 33.393 11.6247 33.5334 11.6461C33.6738 11.6676 33.8085 11.7165 33.93 11.79C34.4141 12.0871 34.8136 12.5038 35.09 13C35.347 13.4657 35.5086 13.9779 35.5652 14.5068C35.6219 15.0356 35.5725 15.5705 35.42 16.08C35.2323 16.6975 34.9209 17.2703 34.5049 17.7637C34.0889 18.257 33.5769 18.6607 33 18.95L32.08 19.41C31.9651 21.8443 31.3453 24.228 30.26 26.41L30.09 26.79C29.2227 28.6244 28.1164 30.3359 26.8 31.88C26.7063 31.9867 26.5909 32.0722 26.4616 32.1308C26.3323 32.1894 26.192 32.2198 26.05 32.22H21.53C21.3662 32.2192 21.2051 32.1782 21.0609 32.1005C20.9167 32.0229 20.7938 31.911 20.7029 31.7747C20.6121 31.6384 20.5561 31.4819 20.5399 31.319C20.5237 31.156 20.5478 30.9915 20.61 30.84L21 29.94L19.82 30.07C18.4899 30.2015 17.1501 30.2015 15.82 30.07C15.45 30.67 15.05 31.27 14.61 31.86C14.5179 31.986 14.3976 32.0888 14.2587 32.16C14.1198 32.2312 13.9661 32.2688 13.81 32.27H9.47C9.30495 32.2699 9.14249 32.2289 8.99713 32.1507C8.85177 32.0725 8.72802 31.9596 8.63692 31.8219C8.54583 31.6843 8.49022 31.5263 8.47505 31.3619C8.45988 31.1975 8.48563 31.032 8.55 30.88C8.72 30.48 8.89 30.05 9.02 29.68C9.2 29.15 9.34 28.68 9.45 28.23C8.34561 27.6338 7.33204 26.8829 6.44 26C5.44363 26.1204 4.43637 26.1204 3.44 26C3.26713 25.9739 3.10414 25.9029 2.96728 25.7941C2.83042 25.6853 2.72447 25.5425 2.66 25.38L0.400002 19.57C0.336414 19.418 0.311356 19.2527 0.327057 19.0887C0.342758 18.9247 0.398731 18.7672 0.490002 18.63ZM4.27 24.07C5.05503 24.1147 5.84258 24.0778 6.62 23.96C7.50528 23.8105 8.35998 23.5166 9.15 23.09C9.38397 22.974 9.65405 22.9541 9.90248 23.0346C10.1509 23.1151 10.358 23.2896 10.4795 23.5208C10.601 23.752 10.6272 24.0215 10.5525 24.2718C10.4779 24.522 10.3083 24.7331 10.08 24.86C9.66207 25.0791 9.23129 25.2728 8.79 25.44C9.33531 25.9056 9.94073 26.2958 10.59 26.6L11.65 27.08C11.65 27.08 11.16 29.27 10.83 30.24H13.21C13.45 29.9 14.66 27.88 14.66 27.88L15.33 27.97C16.7374 28.1729 18.1634 28.2132 19.58 28.09C20.24 28.03 21.34 27.89 22.2 27.74L23.75 27.47C23.75 27.47 23.12 29.9 23 30.21H25.58C26.6339 28.9196 27.5271 27.5059 28.24 26L28.42 25.61C29.7193 23.109 30.268 20.2856 30 17.48C29.46 12.29 23.88 8.37001 17.81 8.94001C16.0442 9.13794 14.3258 9.6386 12.73 10.42L12.11 10.71L11.61 10.24C10.8313 9.54418 9.95123 8.97095 9 8.54001C7.74145 7.99414 6.36664 7.77074 5 7.89001L8.38 13.18L8.13 13.68C7.25663 15.4391 6.1426 17.0681 4.82 18.52C4.20568 19.1204 3.47829 19.5929 2.68 19.91L4.27 24.07Z" fill="black"/>
</g>
<defs>
<clipPath id="clip0_3_386">
<rect width="36" height="36" fill="white" transform="matrix(-1 0 0 1 36 0)"/>
</clipPath>
</defs>
</svg>
