<svg width="36" height="36" viewBox="0 0 36 36" fill="none" xmlns="http://www.w3.org/2000/svg">
<rect x="18" y="1.41421" width="23.4558" height="23.4558" rx="6" transform="rotate(45 18 1.41421)" stroke="black" stroke-width="2"/>
<path d="M8.30769 11.0769H10.3919C11.1966 11.0769 11.9676 11.4002 12.5316 11.9741L15.8603 15.3612C17.036 16.5575 18.964 16.5575 20.1397 15.3612L23.4684 11.9741C24.0324 11.4002 24.8034 11.0769 25.6081 11.0769H27.6923" stroke="black" stroke-width="2" stroke-linecap="round"/>
<path d="M8.30769 24.9231H10.273C11.1471 24.9231 11.9777 24.5418 12.5476 23.8791L15.7253 20.1837C16.9223 18.7917 19.0777 18.7917 20.2747 20.1837L23.4524 23.8791C24.0223 24.5418 24.8529 24.9231 25.727 24.9231H27.6923" stroke="black" stroke-width="2" stroke-linecap="round"/>
</svg>
