<svg width="27" height="28" viewBox="0 0 27 28" fill="none" xmlns="http://www.w3.org/2000/svg">
<path d="M6.73843 10.94C6.58591 10.4926 6.30327 10.1054 5.9295 9.83169C5.55573 9.558 5.10927 9.41135 4.65171 9.41199H2.93914C2.45263 9.41268 1.98347 9.59958 1.62164 9.93686C1.25981 10.2741 1.03077 10.7381 0.978437 11.2397C0.9261 11.7413 1.05415 12.2453 1.33804 12.655C1.62193 13.0648 2.04167 13.3514 2.51679 13.46L5.12421 14.052C5.6581 14.1719 6.13031 14.4925 6.4499 14.9519C6.76949 15.4113 6.91386 15.9771 6.85519 16.5404C6.79652 17.1036 6.53897 17.6244 6.13214 18.0024C5.72531 18.3805 5.19798 18.5891 4.65171 18.588H3.17636C2.21207 18.588 1.39436 17.95 1.08964 17.06M25.9104 10.94C25.7574 10.493 25.4746 10.106 25.1009 9.83242C24.7273 9.55881 24.2811 9.41194 23.8236 9.41199H22.1111C21.6246 9.41268 21.1554 9.59958 20.7936 9.93686C20.4317 10.2741 20.2027 10.7381 20.1504 11.2397C20.098 11.7413 20.2261 12.2453 20.51 12.655C20.7939 13.0648 21.2136 13.3514 21.6887 13.46L24.2961 14.052C24.83 14.1719 25.3022 14.4925 25.6218 14.9519C25.9414 15.4113 26.0858 15.9771 26.0271 16.5404C25.9684 17.1036 25.7109 17.6244 25.3041 18.0024C24.8972 18.3805 24.3699 18.5891 23.8236 18.588H22.3502C21.3859 18.588 20.5663 17.95 20.2635 17.06M10.5493 11.706V16.294C10.5493 17.562 11.5406 18.588 12.7633 18.588H14.2367C15.4594 18.588 16.4507 17.562 16.4507 16.294V11.706C16.4507 10.44 15.4594 9.41199 14.2367 9.41199H12.7633C11.5406 9.41199 10.5512 10.44 10.5512 11.706H10.5493Z" stroke="black" stroke-linecap="round" stroke-linejoin="round"/>
</svg>
